<svg id="Layer_1" data-name="Layer 1" xmlns="http://www.w3.org/2000/svg" xmlns:xlink="http://www.w3.org/1999/xlink" viewBox="0 0 539.62 662.24"><defs><style>.cls-1{fill:#f1f2f2;}.cls-2{fill:url(#linear-gradient);}</style><linearGradient id="linear-gradient" x1="455.45" y1="169.17" x2="712.78" y2="606.63" gradientTransform="translate(-0.44 0.67) rotate(-0.06)" gradientUnits="userSpaceOnUse"><stop offset="0" stop-color="#46b9e5"/><stop offset="1" stop-color="#3f3891"/></linearGradient></defs><path class="cls-1" d="M423.87,686.39H374.32l-9.45,22.86h-25.3l47.56-106.71h24.39l47.71,106.71H433.32Zm-7.78-18.75-16.92-40.86-16.92,40.86Z" transform="translate(-336.45 -48.84)"/><path class="cls-1" d="M490.4,704a52.88,52.88,0,0,1-20.73-19.66,57.37,57.37,0,0,1,0-56.86A52.9,52.9,0,0,1,490.4,607.8a66.25,66.25,0,0,1,54.73-2.21,50.26,50.26,0,0,1,18.82,14L548.1,634.25q-10.83-12.5-26.83-12.5a35.59,35.59,0,0,0-17.68,4.35,30.85,30.85,0,0,0-12.12,12.12,38.18,38.18,0,0,0,0,35.36,31,31,0,0,0,12.12,12.12A35.58,35.58,0,0,0,521.27,690q16,0,26.83-12.65L564,692a49.36,49.36,0,0,1-18.9,14.17,62.75,62.75,0,0,1-25.15,4.88A61.24,61.24,0,0,1,490.4,704Z" transform="translate(-336.45 -48.84)"/><path class="cls-1" d="M599.85,704a52.88,52.88,0,0,1-20.73-19.66,57.3,57.3,0,0,1,0-56.86,52.9,52.9,0,0,1,20.73-19.67,66.25,66.25,0,0,1,54.73-2.21,50.34,50.34,0,0,1,18.82,14l-15.85,14.63q-10.83-12.5-26.83-12.5A35.56,35.56,0,0,0,613,626.1a30.72,30.72,0,0,0-12.12,12.12,38.1,38.1,0,0,0,0,35.36A30.85,30.85,0,0,0,613,685.7,35.55,35.55,0,0,0,630.72,690q16,0,26.83-12.65L673.4,692a49.36,49.36,0,0,1-18.9,14.17,62.79,62.79,0,0,1-25.15,4.88A61.24,61.24,0,0,1,599.85,704Z" transform="translate(-336.45 -48.84)"/><path class="cls-1" d="M772.64,689.43v19.82H690V602.54h80.63v19.82H714.56v23.17H764.1v19.21H714.56v24.69Z" transform="translate(-336.45 -48.84)"/><path class="cls-1" d="M792.3,602.54H817v86.59H870.5v20.12H792.3Z" transform="translate(-336.45 -48.84)"/><path class="cls-2" d="M744.39,324.61,771,371.06c12.47,21.75,30.28,43.28,23.54,69.87-5.68,22.42-26.82,40-49.89,41.61-13.39.92-25.64-4-36.35-11.74l-27.87-20.31c-17.05-12.44-45.57-3.39-55,14.48-12.84,24.37.62,44.44,20.07,59.11,28.38,21.39,57.75,38.21,94.19,39,50,1.07,100.25-29.72,122.16-74.69,20.6-42.29,18.52-89-4.85-129.76-9-15.72-18.15-31.35-27.22-47Q771.89,210.78,713.32,110.31c-27.23-45.63-77.53-67.88-129.53-59.87-37.86,5.84-68.9,30.79-87.76,63.37q-15.21,26.28-30.31,52.63l-92.37,160.4c-7.63,13.25-16,26.33-22.72,40.07-25.48,52-17.14,119.71,29.22,157.62,35.51,29,85.37,40.12,129.06,23.47,31.49-12,54.49-33.41,71.46-62.22l129.81-220.3-46.25-79.93L530.63,411.78c-7.4,12.55-14.75,25.14-22.19,37.66-4.82,8.1-11.48,15.42-19.8,20.16-9.83,5.59-21.39,6.71-32.45,5A50.81,50.81,0,0,1,433,464.31a46.79,46.79,0,0,1-16.34-29.81c-2.22-16.45,4.65-29.81,12.58-43.58,46.06-80,91-160.69,138.22-240,8.15-13.66,22.33-22.56,38.45-22.58a44,44,0,0,1,26,8.46c9.15,6.7,13.51,16.73,19,26.22Z" transform="translate(-336.45 -48.84)"/></svg>