<?xml version="1.0" encoding="UTF-8" standalone="no"?>
<svg
   viewBox="0 0 220.8 50.74"
   version="1.1"
   id="svg25"
   sodipodi:docname="logo-long.svg"
   inkscape:version="1.1.1 (3bf5ae0d25, 2021-09-20)"
   xmlns:inkscape="http://www.inkscape.org/namespaces/inkscape"
   xmlns:sodipodi="http://sodipodi.sourceforge.net/DTD/sodipodi-0.dtd"
   xmlns="http://www.w3.org/2000/svg"
   xmlns:svg="http://www.w3.org/2000/svg">
  <sodipodi:namedview
     id="namedview27"
     pagecolor="#ffffff"
     bordercolor="#666666"
     borderopacity="1.0"
     inkscape:pageshadow="2"
     inkscape:pageopacity="0.0"
     inkscape:pagecheckerboard="0"
     showgrid="false"
     inkscape:zoom="6.0054347"
     inkscape:cx="82.342083"
     inkscape:cy="25.310408"
     inkscape:window-width="1920"
     inkscape:window-height="1067"
     inkscape:window-x="0"
     inkscape:window-y="27"
     inkscape:window-maximized="1"
     inkscape:current-layer="Layer_1-2" />
  <defs
     id="defs9">
    <style
       id="logoani">.cls-1{fill:#f1f2f2;}.cls-2{fill:url(#linear-gradient);}</style>
    <linearGradient
       id="linear-gradient"
       x1="11.73"
       y1="11.75"
       x2="37.12"
       y2="54.92"
       gradientTransform="translate(-0.03 0.15) rotate(-0.06)"
       gradientUnits="userSpaceOnUse">
      <stop
         offset="0"
         stop-color="#46b9e5"
         id="stop4" />
      <stop
         offset="1"
         stop-color="#3f3891"
         id="stop6" />
    </linearGradient>
  </defs>
  <g
     id="Layer_2"
     data-name="Layer 2">
    <g
       id="Layer_1-2"
       data-name="Layer 1">
      <path
         class="cls-1"
         d="M89.12,34.9H74.52l-2.79,6.74H64.27l14-31.46h7.19L99.55,41.64H91.91Zm-2.29-5.53-5-12-5,12Z"
         id="path11" />
      <path
         class="cls-1"
         d="M108.74,40.09a15.58,15.58,0,0,1-6.11-5.8,16,16,0,0,1-2.23-8.38,16,16,0,0,1,2.23-8.38,15.58,15.58,0,0,1,6.11-5.8,19.48,19.48,0,0,1,16.13-.65,14.76,14.76,0,0,1,5.55,4.13l-4.67,4.32a10,10,0,0,0-7.91-3.69,10.53,10.53,0,0,0-5.21,1.28,9.1,9.1,0,0,0-3.57,3.58,10.4,10.4,0,0,0-1.29,5.21,10.4,10.4,0,0,0,1.29,5.21,9.1,9.1,0,0,0,3.57,3.58A10.53,10.53,0,0,0,117.84,36a10,10,0,0,0,7.91-3.73l4.67,4.31a14.47,14.47,0,0,1-5.57,4.18,18.48,18.48,0,0,1-7.41,1.44A18.11,18.11,0,0,1,108.74,40.09Z"
         id="path13" />
      <path
         class="cls-1"
         d="M141,40.09a15.67,15.67,0,0,1-6.12-5.8,16,16,0,0,1-2.22-8.38,16,16,0,0,1,2.22-8.38,15.67,15.67,0,0,1,6.12-5.8,19.48,19.48,0,0,1,16.13-.65,14.92,14.92,0,0,1,5.55,4.13L158,19.53a10.06,10.06,0,0,0-7.91-3.69,10.57,10.57,0,0,0-5.22,1.28,9.24,9.24,0,0,0-3.57,3.58A10.5,10.5,0,0,0,140,25.91a10.5,10.5,0,0,0,1.28,5.21,9.24,9.24,0,0,0,3.57,3.58A10.57,10.57,0,0,0,150.11,36,10,10,0,0,0,158,32.25l4.67,4.31a14.54,14.54,0,0,1-5.57,4.18,18.5,18.5,0,0,1-7.42,1.44A18.09,18.09,0,0,1,141,40.09Z"
         id="path15" />
      <path
         class="cls-1"
         d="M192,35.8v5.84H167.59V10.18h23.77V16H174.82v6.83h14.61v5.67H174.82V35.8Z"
         id="path17" />
      <path
         class="cls-1"
         d="M197.74,10.18H205V35.71H220.8v5.93H197.74Z"
         id="path19" />
      <path
         class="cls-2"
         d="M40.25,27.21l2.63,4.58c1.23,2.15,3,4.27,2.32,6.9a5.6,5.6,0,0,1-4.92,4.1,5.45,5.45,0,0,1-3.59-1.16l-2.75-2c-1.68-1.23-4.49-.33-5.42,1.43-1.27,2.4.06,4.38,2,5.83,2.8,2.11,5.7,3.77,9.29,3.85A13.34,13.34,0,0,0,51.37,30.57Q50,28.24,48.68,25.93,43,16,37.18,6.07a12.29,12.29,0,0,0-21.43.34c-1,1.73-2,3.46-3,5.19L3.64,27.43C2.89,28.74,2.06,30,1.4,31.38-1.11,36.52-.29,43.2,4.28,46.93A13.06,13.06,0,0,0,17,49.25a13.75,13.75,0,0,0,7.05-6.14L36.88,21.38l-4.57-7.89L19.16,35.81,17,39.53a5.55,5.55,0,0,1-1.95,2,4.88,4.88,0,0,1-3.21.48,4.85,4.85,0,0,1-2.28-1,4.56,4.56,0,0,1-1.61-2.94,6.6,6.6,0,0,1,1.24-4.3c4.54-7.89,9-15.85,13.63-23.68a4.46,4.46,0,0,1,3.8-2.23,4.36,4.36,0,0,1,2.56.84A7.71,7.71,0,0,1,31,11.27Z"
         id="logo" />
    </g>
  </g>
</svg>
